<svg width="182" height="181.6" xmlns="http://www.w3.org/2000/svg">
 <g>
  <title>Layer 1</title>
  <path d="m90.8,0c-50.1,0 -90.8,40.7 -90.8,90.8s40.7,90.8 90.8,90.8s90.8,-40.7 90.8,-90.8s-40.7,-90.8 -90.8,-90.8zm0,172.5c-45.1,0 -81.7,-36.7 -81.7,-81.7s36.6,-81.7 81.7,-81.7s81.7,36.7 81.7,81.7s-36.6,81.7 -81.7,81.7z" id="svg_1"/>
  <path d="m123.2,32.6c-0.3,-0.2 -0.7,-0.3 -1.1,-0.3c-1.2,0 -2.1,0.9 -2.1,2.1l0,28.4c0,1 -0.8,1.8 -1.8,1.8l-55,0c-1,0 -1.7,-0.8 -1.8,-1.8l0,-28.4c0,-0.4 -0.1,-0.7 -0.3,-1.1c-0.6,-1 -1.9,-1.3 -2.9,-0.7c-20.3,12.5 -32.6,34.2 -32.6,58.2s12.3,45.7 32.8,58.2c0.3,0.2 0.7,0.3 1.1,0.3c1.2,0 2.1,-0.9 2.1,-2.1l0,-28.4c0,-1 0.8,-1.7 1.8,-1.8l55,0c1,0 1.8,0.8 1.8,1.8l0,28.4c0,0.4 0.1,0.7 0.3,1.1c0.6,1 1.9,1.3 2.9,0.7c20.5,-12.5 32.8,-34.2 32.8,-58.2s-12.5,-45.7 -33,-58.2zm-72.2,93.8l0.3,3.4l-2.2,-2.7c-16.9,-21.3 -16.9,-51.4 0,-72.7l1.9,-2.4l0.3,-0.3l-0.3,3.5c-0.3,2.8 -0.4,5.7 -0.4,8.6l0,53.9c0,2.9 0.2,5.8 0.4,8.7zm69,-22c0,1 -0.8,1.8 -1.8,1.8l-55,0c-1,0 -1.7,-0.8 -1.8,-1.8l0,-27.2c0,-1 0.8,-1.8 1.8,-1.8l55,0c1,0 1.8,0.8 1.8,1.8l0,27.2zm12.4,22.7l-2.2,2.7l0.3,-3.4c0.3,-2.8 0.4,-5.7 0.4,-8.6l0,-54c0,-2.9 -0.1,-5.8 -0.4,-8.6l-0.1,-1.5l-0.1,-1.6l0,-0.4l2.1,2.7c8.2,10.2 12.7,23.2 12.7,36.3s-4.5,26.2 -12.7,36.4z" id="svg_2"/>
 </g>

</svg>